<?xml version="1.0" encoding="utf-8" standalone="no"?>
<!DOCTYPE svg PUBLIC "-//W3C//DTD SVG 1.1//EN"
  "http://www.w3.org/Graphics/SVG/1.1/DTD/svg11.dtd">
<svg xmlns:xlink="http://www.w3.org/1999/xlink" width="864pt" height="432pt" viewBox="0 0 864 432" xmlns="http://www.w3.org/2000/svg" version="1.1">
 <metadata>
  <rdf:RDF xmlns:dc="http://purl.org/dc/elements/1.1/" xmlns:cc="http://creativecommons.org/ns#" xmlns:rdf="http://www.w3.org/1999/02/22-rdf-syntax-ns#">
   <cc:Work>
    <dc:type rdf:resource="http://purl.org/dc/dcmitype/StillImage"/>
    <dc:date>2022-01-15T02:11:11.042658</dc:date>
    <dc:format>image/svg+xml</dc:format>
    <dc:creator>
     <cc:Agent>
      <dc:title>Matplotlib v3.5.1, https://matplotlib.org/</dc:title>
     </cc:Agent>
    </dc:creator>
   </cc:Work>
  </rdf:RDF>
 </metadata>
 <defs>
  <style type="text/css">*{stroke-linejoin: round; stroke-linecap: butt}</style>
 </defs>
 <g id="figure_1">
  <g id="patch_1">
   <path d="M 0 432 
L 864 432 
L 864 0 
L 0 0 
z
" style="fill: #ffffff"/>
  </g>
  <g id="axes_1">
   <g id="patch_2">
    <path d="M 108 384.48 
L 777.6 384.48 
L 777.6 51.84 
L 108 51.84 
z
" style="fill: #ffffff"/>
   </g>
   <g id="matplotlib.axis_1">
    <g id="xtick_1">
     <g id="line2d_1">
      <path d="M 108 384.48 
L 108 51.84 
" clip-path="url(#pb0e29f0fa5)" style="fill: none; stroke: #b0b0b0; stroke-width: 0.8; stroke-linecap: square"/>
     </g>
     <g id="line2d_2">
      <defs>
       <path id="m02b934aa11" d="M 0 0 
L 0 3.5 
" style="stroke: #000000; stroke-width: 0.8"/>
      </defs>
      <g>
       <use xlink:href="#m02b934aa11" x="108" y="384.48" style="stroke: #000000; stroke-width: 0.8"/>
      </g>
     </g>
     <g id="text_1">
      <!-- −1.0 -->
      <g transform="translate(95.858594 399.078438)scale(0.1 -0.1)">
       <defs>
        <path id="DejaVuSans-2212" d="M 678 2272 
L 4684 2272 
L 4684 1741 
L 678 1741 
L 678 2272 
z
" transform="scale(0.015625)"/>
        <path id="DejaVuSans-31" d="M 794 531 
L 1825 531 
L 1825 4091 
L 703 3866 
L 703 4441 
L 1819 4666 
L 2450 4666 
L 2450 531 
L 3481 531 
L 3481 0 
L 794 0 
L 794 531 
z
" transform="scale(0.015625)"/>
        <path id="DejaVuSans-2e" d="M 684 794 
L 1344 794 
L 1344 0 
L 684 0 
L 684 794 
z
" transform="scale(0.015625)"/>
        <path id="DejaVuSans-30" d="M 2034 4250 
Q 1547 4250 1301 3770 
Q 1056 3291 1056 2328 
Q 1056 1369 1301 889 
Q 1547 409 2034 409 
Q 2525 409 2770 889 
Q 3016 1369 3016 2328 
Q 3016 3291 2770 3770 
Q 2525 4250 2034 4250 
z
M 2034 4750 
Q 2819 4750 3233 4129 
Q 3647 3509 3647 2328 
Q 3647 1150 3233 529 
Q 2819 -91 2034 -91 
Q 1250 -91 836 529 
Q 422 1150 422 2328 
Q 422 3509 836 4129 
Q 1250 4750 2034 4750 
z
" transform="scale(0.015625)"/>
       </defs>
       <use xlink:href="#DejaVuSans-2212"/>
       <use xlink:href="#DejaVuSans-31" x="83.789062"/>
       <use xlink:href="#DejaVuSans-2e" x="147.412109"/>
       <use xlink:href="#DejaVuSans-30" x="179.199219"/>
      </g>
     </g>
    </g>
    <g id="xtick_2">
     <g id="line2d_3">
      <path d="M 174.96 384.48 
L 174.96 51.84 
" clip-path="url(#pb0e29f0fa5)" style="fill: none; stroke: #b0b0b0; stroke-width: 0.8; stroke-linecap: square"/>
     </g>
     <g id="line2d_4">
      <g>
       <use xlink:href="#m02b934aa11" x="174.96" y="384.48" style="stroke: #000000; stroke-width: 0.8"/>
      </g>
     </g>
     <g id="text_2">
      <!-- −0.8 -->
      <g transform="translate(162.818594 399.078438)scale(0.1 -0.1)">
       <defs>
        <path id="DejaVuSans-38" d="M 2034 2216 
Q 1584 2216 1326 1975 
Q 1069 1734 1069 1313 
Q 1069 891 1326 650 
Q 1584 409 2034 409 
Q 2484 409 2743 651 
Q 3003 894 3003 1313 
Q 3003 1734 2745 1975 
Q 2488 2216 2034 2216 
z
M 1403 2484 
Q 997 2584 770 2862 
Q 544 3141 544 3541 
Q 544 4100 942 4425 
Q 1341 4750 2034 4750 
Q 2731 4750 3128 4425 
Q 3525 4100 3525 3541 
Q 3525 3141 3298 2862 
Q 3072 2584 2669 2484 
Q 3125 2378 3379 2068 
Q 3634 1759 3634 1313 
Q 3634 634 3220 271 
Q 2806 -91 2034 -91 
Q 1263 -91 848 271 
Q 434 634 434 1313 
Q 434 1759 690 2068 
Q 947 2378 1403 2484 
z
M 1172 3481 
Q 1172 3119 1398 2916 
Q 1625 2713 2034 2713 
Q 2441 2713 2670 2916 
Q 2900 3119 2900 3481 
Q 2900 3844 2670 4047 
Q 2441 4250 2034 4250 
Q 1625 4250 1398 4047 
Q 1172 3844 1172 3481 
z
" transform="scale(0.015625)"/>
       </defs>
       <use xlink:href="#DejaVuSans-2212"/>
       <use xlink:href="#DejaVuSans-30" x="83.789062"/>
       <use xlink:href="#DejaVuSans-2e" x="147.412109"/>
       <use xlink:href="#DejaVuSans-38" x="179.199219"/>
      </g>
     </g>
    </g>
    <g id="xtick_3">
     <g id="line2d_5">
      <path d="M 241.92 384.48 
L 241.92 51.84 
" clip-path="url(#pb0e29f0fa5)" style="fill: none; stroke: #b0b0b0; stroke-width: 0.8; stroke-linecap: square"/>
     </g>
     <g id="line2d_6">
      <g>
       <use xlink:href="#m02b934aa11" x="241.92" y="384.48" style="stroke: #000000; stroke-width: 0.8"/>
      </g>
     </g>
     <g id="text_3">
      <!-- −0.6 -->
      <g transform="translate(229.778594 399.078438)scale(0.1 -0.1)">
       <defs>
        <path id="DejaVuSans-36" d="M 2113 2584 
Q 1688 2584 1439 2293 
Q 1191 2003 1191 1497 
Q 1191 994 1439 701 
Q 1688 409 2113 409 
Q 2538 409 2786 701 
Q 3034 994 3034 1497 
Q 3034 2003 2786 2293 
Q 2538 2584 2113 2584 
z
M 3366 4563 
L 3366 3988 
Q 3128 4100 2886 4159 
Q 2644 4219 2406 4219 
Q 1781 4219 1451 3797 
Q 1122 3375 1075 2522 
Q 1259 2794 1537 2939 
Q 1816 3084 2150 3084 
Q 2853 3084 3261 2657 
Q 3669 2231 3669 1497 
Q 3669 778 3244 343 
Q 2819 -91 2113 -91 
Q 1303 -91 875 529 
Q 447 1150 447 2328 
Q 447 3434 972 4092 
Q 1497 4750 2381 4750 
Q 2619 4750 2861 4703 
Q 3103 4656 3366 4563 
z
" transform="scale(0.015625)"/>
       </defs>
       <use xlink:href="#DejaVuSans-2212"/>
       <use xlink:href="#DejaVuSans-30" x="83.789062"/>
       <use xlink:href="#DejaVuSans-2e" x="147.412109"/>
       <use xlink:href="#DejaVuSans-36" x="179.199219"/>
      </g>
     </g>
    </g>
    <g id="xtick_4">
     <g id="line2d_7">
      <path d="M 308.88 384.48 
L 308.88 51.84 
" clip-path="url(#pb0e29f0fa5)" style="fill: none; stroke: #b0b0b0; stroke-width: 0.8; stroke-linecap: square"/>
     </g>
     <g id="line2d_8">
      <g>
       <use xlink:href="#m02b934aa11" x="308.88" y="384.48" style="stroke: #000000; stroke-width: 0.8"/>
      </g>
     </g>
     <g id="text_4">
      <!-- −0.4 -->
      <g transform="translate(296.738594 399.078438)scale(0.1 -0.1)">
       <defs>
        <path id="DejaVuSans-34" d="M 2419 4116 
L 825 1625 
L 2419 1625 
L 2419 4116 
z
M 2253 4666 
L 3047 4666 
L 3047 1625 
L 3713 1625 
L 3713 1100 
L 3047 1100 
L 3047 0 
L 2419 0 
L 2419 1100 
L 313 1100 
L 313 1709 
L 2253 4666 
z
" transform="scale(0.015625)"/>
       </defs>
       <use xlink:href="#DejaVuSans-2212"/>
       <use xlink:href="#DejaVuSans-30" x="83.789062"/>
       <use xlink:href="#DejaVuSans-2e" x="147.412109"/>
       <use xlink:href="#DejaVuSans-34" x="179.199219"/>
      </g>
     </g>
    </g>
    <g id="xtick_5">
     <g id="line2d_9">
      <path d="M 375.84 384.48 
L 375.84 51.84 
" clip-path="url(#pb0e29f0fa5)" style="fill: none; stroke: #b0b0b0; stroke-width: 0.8; stroke-linecap: square"/>
     </g>
     <g id="line2d_10">
      <g>
       <use xlink:href="#m02b934aa11" x="375.84" y="384.48" style="stroke: #000000; stroke-width: 0.8"/>
      </g>
     </g>
     <g id="text_5">
      <!-- −0.2 -->
      <g transform="translate(363.698594 399.078438)scale(0.1 -0.1)">
       <defs>
        <path id="DejaVuSans-32" d="M 1228 531 
L 3431 531 
L 3431 0 
L 469 0 
L 469 531 
Q 828 903 1448 1529 
Q 2069 2156 2228 2338 
Q 2531 2678 2651 2914 
Q 2772 3150 2772 3378 
Q 2772 3750 2511 3984 
Q 2250 4219 1831 4219 
Q 1534 4219 1204 4116 
Q 875 4013 500 3803 
L 500 4441 
Q 881 4594 1212 4672 
Q 1544 4750 1819 4750 
Q 2544 4750 2975 4387 
Q 3406 4025 3406 3419 
Q 3406 3131 3298 2873 
Q 3191 2616 2906 2266 
Q 2828 2175 2409 1742 
Q 1991 1309 1228 531 
z
" transform="scale(0.015625)"/>
       </defs>
       <use xlink:href="#DejaVuSans-2212"/>
       <use xlink:href="#DejaVuSans-30" x="83.789062"/>
       <use xlink:href="#DejaVuSans-2e" x="147.412109"/>
       <use xlink:href="#DejaVuSans-32" x="179.199219"/>
      </g>
     </g>
    </g>
    <g id="xtick_6">
     <g id="line2d_11">
      <path d="M 442.8 384.48 
L 442.8 51.84 
" clip-path="url(#pb0e29f0fa5)" style="fill: none; stroke: #b0b0b0; stroke-width: 0.8; stroke-linecap: square"/>
     </g>
     <g id="line2d_12">
      <g>
       <use xlink:href="#m02b934aa11" x="442.8" y="384.48" style="stroke: #000000; stroke-width: 0.8"/>
      </g>
     </g>
     <g id="text_6">
      <!-- 0.0 -->
      <g transform="translate(434.848437 399.078438)scale(0.1 -0.1)">
       <use xlink:href="#DejaVuSans-30"/>
       <use xlink:href="#DejaVuSans-2e" x="63.623047"/>
       <use xlink:href="#DejaVuSans-30" x="95.410156"/>
      </g>
     </g>
    </g>
    <g id="xtick_7">
     <g id="line2d_13">
      <path d="M 509.76 384.48 
L 509.76 51.84 
" clip-path="url(#pb0e29f0fa5)" style="fill: none; stroke: #b0b0b0; stroke-width: 0.8; stroke-linecap: square"/>
     </g>
     <g id="line2d_14">
      <g>
       <use xlink:href="#m02b934aa11" x="509.76" y="384.48" style="stroke: #000000; stroke-width: 0.8"/>
      </g>
     </g>
     <g id="text_7">
      <!-- 0.2 -->
      <g transform="translate(501.808437 399.078438)scale(0.1 -0.1)">
       <use xlink:href="#DejaVuSans-30"/>
       <use xlink:href="#DejaVuSans-2e" x="63.623047"/>
       <use xlink:href="#DejaVuSans-32" x="95.410156"/>
      </g>
     </g>
    </g>
    <g id="xtick_8">
     <g id="line2d_15">
      <path d="M 576.72 384.48 
L 576.72 51.84 
" clip-path="url(#pb0e29f0fa5)" style="fill: none; stroke: #b0b0b0; stroke-width: 0.8; stroke-linecap: square"/>
     </g>
     <g id="line2d_16">
      <g>
       <use xlink:href="#m02b934aa11" x="576.72" y="384.48" style="stroke: #000000; stroke-width: 0.8"/>
      </g>
     </g>
     <g id="text_8">
      <!-- 0.4 -->
      <g transform="translate(568.768438 399.078438)scale(0.1 -0.1)">
       <use xlink:href="#DejaVuSans-30"/>
       <use xlink:href="#DejaVuSans-2e" x="63.623047"/>
       <use xlink:href="#DejaVuSans-34" x="95.410156"/>
      </g>
     </g>
    </g>
    <g id="xtick_9">
     <g id="line2d_17">
      <path d="M 643.68 384.48 
L 643.68 51.84 
" clip-path="url(#pb0e29f0fa5)" style="fill: none; stroke: #b0b0b0; stroke-width: 0.8; stroke-linecap: square"/>
     </g>
     <g id="line2d_18">
      <g>
       <use xlink:href="#m02b934aa11" x="643.68" y="384.48" style="stroke: #000000; stroke-width: 0.8"/>
      </g>
     </g>
     <g id="text_9">
      <!-- 0.6 -->
      <g transform="translate(635.728438 399.078438)scale(0.1 -0.1)">
       <use xlink:href="#DejaVuSans-30"/>
       <use xlink:href="#DejaVuSans-2e" x="63.623047"/>
       <use xlink:href="#DejaVuSans-36" x="95.410156"/>
      </g>
     </g>
    </g>
    <g id="xtick_10">
     <g id="line2d_19">
      <path d="M 710.64 384.48 
L 710.64 51.84 
" clip-path="url(#pb0e29f0fa5)" style="fill: none; stroke: #b0b0b0; stroke-width: 0.8; stroke-linecap: square"/>
     </g>
     <g id="line2d_20">
      <g>
       <use xlink:href="#m02b934aa11" x="710.64" y="384.48" style="stroke: #000000; stroke-width: 0.8"/>
      </g>
     </g>
     <g id="text_10">
      <!-- 0.8 -->
      <g transform="translate(702.688438 399.078438)scale(0.1 -0.1)">
       <use xlink:href="#DejaVuSans-30"/>
       <use xlink:href="#DejaVuSans-2e" x="63.623047"/>
       <use xlink:href="#DejaVuSans-38" x="95.410156"/>
      </g>
     </g>
    </g>
    <g id="xtick_11">
     <g id="line2d_21">
      <path d="M 777.6 384.48 
L 777.6 51.84 
" clip-path="url(#pb0e29f0fa5)" style="fill: none; stroke: #b0b0b0; stroke-width: 0.8; stroke-linecap: square"/>
     </g>
     <g id="line2d_22">
      <g>
       <use xlink:href="#m02b934aa11" x="777.6" y="384.48" style="stroke: #000000; stroke-width: 0.8"/>
      </g>
     </g>
     <g id="text_11">
      <!-- 1.0 -->
      <g transform="translate(769.648438 399.078438)scale(0.1 -0.1)">
       <use xlink:href="#DejaVuSans-31"/>
       <use xlink:href="#DejaVuSans-2e" x="63.623047"/>
       <use xlink:href="#DejaVuSans-30" x="95.410156"/>
      </g>
     </g>
    </g>
   </g>
   <g id="matplotlib.axis_2">
    <g id="ytick_1">
     <g id="line2d_23">
      <path d="M 108 384.48 
L 777.6 384.48 
" clip-path="url(#pb0e29f0fa5)" style="fill: none; stroke: #b0b0b0; stroke-width: 0.8; stroke-linecap: square"/>
     </g>
     <g id="line2d_24">
      <defs>
       <path id="m10786760f4" d="M 0 0 
L -3.5 0 
" style="stroke: #000000; stroke-width: 0.8"/>
      </defs>
      <g>
       <use xlink:href="#m10786760f4" x="108" y="384.48" style="stroke: #000000; stroke-width: 0.8"/>
      </g>
     </g>
     <g id="text_12">
      <!-- −1.0 -->
      <g transform="translate(76.717187 388.279219)scale(0.1 -0.1)">
       <use xlink:href="#DejaVuSans-2212"/>
       <use xlink:href="#DejaVuSans-31" x="83.789062"/>
       <use xlink:href="#DejaVuSans-2e" x="147.412109"/>
       <use xlink:href="#DejaVuSans-30" x="179.199219"/>
      </g>
     </g>
    </g>
    <g id="ytick_2">
     <g id="line2d_25">
      <path d="M 108 351.216 
L 777.6 351.216 
" clip-path="url(#pb0e29f0fa5)" style="fill: none; stroke: #b0b0b0; stroke-width: 0.8; stroke-linecap: square"/>
     </g>
     <g id="line2d_26">
      <g>
       <use xlink:href="#m10786760f4" x="108" y="351.216" style="stroke: #000000; stroke-width: 0.8"/>
      </g>
     </g>
     <g id="text_13">
      <!-- −0.8 -->
      <g transform="translate(76.717187 355.015219)scale(0.1 -0.1)">
       <use xlink:href="#DejaVuSans-2212"/>
       <use xlink:href="#DejaVuSans-30" x="83.789062"/>
       <use xlink:href="#DejaVuSans-2e" x="147.412109"/>
       <use xlink:href="#DejaVuSans-38" x="179.199219"/>
      </g>
     </g>
    </g>
    <g id="ytick_3">
     <g id="line2d_27">
      <path d="M 108 317.952 
L 777.6 317.952 
" clip-path="url(#pb0e29f0fa5)" style="fill: none; stroke: #b0b0b0; stroke-width: 0.8; stroke-linecap: square"/>
     </g>
     <g id="line2d_28">
      <g>
       <use xlink:href="#m10786760f4" x="108" y="317.952" style="stroke: #000000; stroke-width: 0.8"/>
      </g>
     </g>
     <g id="text_14">
      <!-- −0.6 -->
      <g transform="translate(76.717187 321.751219)scale(0.1 -0.1)">
       <use xlink:href="#DejaVuSans-2212"/>
       <use xlink:href="#DejaVuSans-30" x="83.789062"/>
       <use xlink:href="#DejaVuSans-2e" x="147.412109"/>
       <use xlink:href="#DejaVuSans-36" x="179.199219"/>
      </g>
     </g>
    </g>
    <g id="ytick_4">
     <g id="line2d_29">
      <path d="M 108 284.688 
L 777.6 284.688 
" clip-path="url(#pb0e29f0fa5)" style="fill: none; stroke: #b0b0b0; stroke-width: 0.8; stroke-linecap: square"/>
     </g>
     <g id="line2d_30">
      <g>
       <use xlink:href="#m10786760f4" x="108" y="284.688" style="stroke: #000000; stroke-width: 0.8"/>
      </g>
     </g>
     <g id="text_15">
      <!-- −0.4 -->
      <g transform="translate(76.717187 288.487219)scale(0.1 -0.1)">
       <use xlink:href="#DejaVuSans-2212"/>
       <use xlink:href="#DejaVuSans-30" x="83.789062"/>
       <use xlink:href="#DejaVuSans-2e" x="147.412109"/>
       <use xlink:href="#DejaVuSans-34" x="179.199219"/>
      </g>
     </g>
    </g>
    <g id="ytick_5">
     <g id="line2d_31">
      <path d="M 108 251.424 
L 777.6 251.424 
" clip-path="url(#pb0e29f0fa5)" style="fill: none; stroke: #b0b0b0; stroke-width: 0.8; stroke-linecap: square"/>
     </g>
     <g id="line2d_32">
      <g>
       <use xlink:href="#m10786760f4" x="108" y="251.424" style="stroke: #000000; stroke-width: 0.8"/>
      </g>
     </g>
     <g id="text_16">
      <!-- −0.2 -->
      <g transform="translate(76.717187 255.223219)scale(0.1 -0.1)">
       <use xlink:href="#DejaVuSans-2212"/>
       <use xlink:href="#DejaVuSans-30" x="83.789062"/>
       <use xlink:href="#DejaVuSans-2e" x="147.412109"/>
       <use xlink:href="#DejaVuSans-32" x="179.199219"/>
      </g>
     </g>
    </g>
    <g id="ytick_6">
     <g id="line2d_33">
      <path d="M 108 218.16 
L 777.6 218.16 
" clip-path="url(#pb0e29f0fa5)" style="fill: none; stroke: #b0b0b0; stroke-width: 0.8; stroke-linecap: square"/>
     </g>
     <g id="line2d_34">
      <g>
       <use xlink:href="#m10786760f4" x="108" y="218.16" style="stroke: #000000; stroke-width: 0.8"/>
      </g>
     </g>
     <g id="text_17">
      <!-- 0.0 -->
      <g transform="translate(85.096875 221.959219)scale(0.1 -0.1)">
       <use xlink:href="#DejaVuSans-30"/>
       <use xlink:href="#DejaVuSans-2e" x="63.623047"/>
       <use xlink:href="#DejaVuSans-30" x="95.410156"/>
      </g>
     </g>
    </g>
    <g id="ytick_7">
     <g id="line2d_35">
      <path d="M 108 184.896 
L 777.6 184.896 
" clip-path="url(#pb0e29f0fa5)" style="fill: none; stroke: #b0b0b0; stroke-width: 0.8; stroke-linecap: square"/>
     </g>
     <g id="line2d_36">
      <g>
       <use xlink:href="#m10786760f4" x="108" y="184.896" style="stroke: #000000; stroke-width: 0.8"/>
      </g>
     </g>
     <g id="text_18">
      <!-- 0.2 -->
      <g transform="translate(85.096875 188.695219)scale(0.1 -0.1)">
       <use xlink:href="#DejaVuSans-30"/>
       <use xlink:href="#DejaVuSans-2e" x="63.623047"/>
       <use xlink:href="#DejaVuSans-32" x="95.410156"/>
      </g>
     </g>
    </g>
    <g id="ytick_8">
     <g id="line2d_37">
      <path d="M 108 151.632 
L 777.6 151.632 
" clip-path="url(#pb0e29f0fa5)" style="fill: none; stroke: #b0b0b0; stroke-width: 0.8; stroke-linecap: square"/>
     </g>
     <g id="line2d_38">
      <g>
       <use xlink:href="#m10786760f4" x="108" y="151.632" style="stroke: #000000; stroke-width: 0.8"/>
      </g>
     </g>
     <g id="text_19">
      <!-- 0.4 -->
      <g transform="translate(85.096875 155.431219)scale(0.1 -0.1)">
       <use xlink:href="#DejaVuSans-30"/>
       <use xlink:href="#DejaVuSans-2e" x="63.623047"/>
       <use xlink:href="#DejaVuSans-34" x="95.410156"/>
      </g>
     </g>
    </g>
    <g id="ytick_9">
     <g id="line2d_39">
      <path d="M 108 118.368 
L 777.6 118.368 
" clip-path="url(#pb0e29f0fa5)" style="fill: none; stroke: #b0b0b0; stroke-width: 0.8; stroke-linecap: square"/>
     </g>
     <g id="line2d_40">
      <g>
       <use xlink:href="#m10786760f4" x="108" y="118.368" style="stroke: #000000; stroke-width: 0.8"/>
      </g>
     </g>
     <g id="text_20">
      <!-- 0.6 -->
      <g transform="translate(85.096875 122.167219)scale(0.1 -0.1)">
       <use xlink:href="#DejaVuSans-30"/>
       <use xlink:href="#DejaVuSans-2e" x="63.623047"/>
       <use xlink:href="#DejaVuSans-36" x="95.410156"/>
      </g>
     </g>
    </g>
    <g id="ytick_10">
     <g id="line2d_41">
      <path d="M 108 85.104 
L 777.6 85.104 
" clip-path="url(#pb0e29f0fa5)" style="fill: none; stroke: #b0b0b0; stroke-width: 0.8; stroke-linecap: square"/>
     </g>
     <g id="line2d_42">
      <g>
       <use xlink:href="#m10786760f4" x="108" y="85.104" style="stroke: #000000; stroke-width: 0.8"/>
      </g>
     </g>
     <g id="text_21">
      <!-- 0.8 -->
      <g transform="translate(85.096875 88.903219)scale(0.1 -0.1)">
       <use xlink:href="#DejaVuSans-30"/>
       <use xlink:href="#DejaVuSans-2e" x="63.623047"/>
       <use xlink:href="#DejaVuSans-38" x="95.410156"/>
      </g>
     </g>
    </g>
    <g id="ytick_11">
     <g id="line2d_43">
      <path d="M 108 51.84 
L 777.6 51.84 
" clip-path="url(#pb0e29f0fa5)" style="fill: none; stroke: #b0b0b0; stroke-width: 0.8; stroke-linecap: square"/>
     </g>
     <g id="line2d_44">
      <g>
       <use xlink:href="#m10786760f4" x="108" y="51.84" style="stroke: #000000; stroke-width: 0.8"/>
      </g>
     </g>
     <g id="text_22">
      <!-- 1.0 -->
      <g transform="translate(85.096875 55.639219)scale(0.1 -0.1)">
       <use xlink:href="#DejaVuSans-31"/>
       <use xlink:href="#DejaVuSans-2e" x="63.623047"/>
       <use xlink:href="#DejaVuSans-30" x="95.410156"/>
      </g>
     </g>
    </g>
   </g>
   <g id="line2d_45">
    <path d="M 108 384.48 
L 777.6 51.84 
L 777.6 51.84 
" clip-path="url(#pb0e29f0fa5)" style="fill: none; stroke: #1f77b4; stroke-width: 1.5; stroke-linecap: square"/>
   </g>
   <g id="line2d_46">
    <path d="M 108 51.84 
L 117.154688 65.296906 
L 126.309375 78.38075 
L 135.464063 91.09153 
L 144.61875 103.429248 
L 153.773438 115.393903 
L 162.928125 126.985496 
L 172.082812 138.204025 
L 181.2375 149.049492 
L 189.738281 158.786239 
L 198.239063 168.201315 
L 206.739844 177.29472 
L 215.240625 186.066453 
L 223.741406 194.516514 
L 232.242188 202.644904 
L 240.742969 210.451623 
L 249.24375 217.93667 
L 257.090625 224.560437 
L 264.9375 230.910117 
L 272.784375 236.98571 
L 280.63125 242.787217 
L 288.478125 248.314636 
L 296.325 253.567969 
L 304.171875 258.547214 
L 312.01875 263.252373 
L 319.865625 267.683445 
L 327.7125 271.84043 
L 334.905469 275.410221 
L 342.098437 278.749704 
L 349.291406 281.858877 
L 356.484375 284.737742 
L 363.677344 287.386297 
L 370.870313 289.804543 
L 378.063281 291.99248 
L 385.25625 293.950107 
L 392.449219 295.677426 
L 399.642188 297.174435 
L 406.835156 298.441136 
L 414.028125 299.477527 
L 421.221094 300.283609 
L 428.414062 300.859382 
L 435.607031 301.204845 
L 442.8 301.32 
L 449.992969 301.204845 
L 457.185938 300.859382 
L 464.378906 300.283609 
L 471.571875 299.477527 
L 478.764844 298.441136 
L 485.957812 297.174435 
L 493.150781 295.677426 
L 500.34375 293.950107 
L 507.536719 291.99248 
L 514.729687 289.804543 
L 521.922656 287.386297 
L 529.115625 284.737742 
L 536.308594 281.858877 
L 543.501562 278.749704 
L 550.694531 275.410221 
L 557.8875 271.84043 
L 565.080469 268.040329 
L 572.927344 263.632098 
L 580.774219 258.94978 
L 588.621094 253.993374 
L 596.467969 248.762883 
L 604.314844 243.258304 
L 612.161719 237.479638 
L 620.008594 231.426885 
L 627.855469 225.100046 
L 635.702344 218.499119 
L 643.549219 211.624106 
L 652.05 203.866875 
L 660.550781 195.787973 
L 669.051563 187.387399 
L 677.552344 178.665154 
L 686.053125 169.621238 
L 694.553906 160.25565 
L 703.054688 150.568391 
L 711.555469 140.55946 
L 720.710156 129.420872 
L 729.864844 117.909222 
L 739.019531 106.024509 
L 748.174219 93.766733 
L 757.328906 81.135894 
L 766.483594 68.131993 
L 775.638281 54.755029 
L 777.6 51.84 
L 777.6 51.84 
" clip-path="url(#pb0e29f0fa5)" style="fill: none; stroke: #ff7f0e; stroke-width: 1.5; stroke-linecap: square"/>
   </g>
   <g id="line2d_47">
    <path d="M 108 384.48 
L 113.885156 367.321614 
L 119.770312 350.920547 
L 125.001562 336.96664 
L 130.232813 323.590885 
L 135.464063 310.783766 
L 140.695312 298.535764 
L 145.926562 286.837365 
L 151.157812 275.679049 
L 156.389063 265.051301 
L 161.620313 254.944604 
L 166.851562 245.349441 
L 172.082812 236.256294 
L 177.314062 227.655647 
L 181.891406 220.526604 
L 186.46875 213.760968 
L 191.046094 207.352366 
L 195.623437 201.29442 
L 200.200781 195.580756 
L 204.778125 190.204998 
L 209.355469 185.160771 
L 213.932813 180.441698 
L 218.510156 176.041404 
L 223.0875 171.953514 
L 227.664844 168.171652 
L 232.242188 164.689443 
L 236.819531 161.50051 
L 241.396875 158.598479 
L 245.974219 155.976973 
L 250.551563 153.629618 
L 255.128906 151.550037 
L 259.70625 149.731854 
L 264.283594 148.168696 
L 268.860937 146.854185 
L 273.438281 145.781946 
L 278.015625 144.945604 
L 282.592969 144.338783 
L 287.170313 143.955107 
L 291.747656 143.788201 
L 296.325 143.831689 
L 300.902344 144.079197 
L 306.133594 144.603702 
L 311.364844 145.376837 
L 316.596094 146.389084 
L 321.827344 147.630926 
L 327.058594 149.092847 
L 332.289844 150.765329 
L 338.175 152.886709 
L 344.060156 155.248986 
L 349.945312 157.838608 
L 356.484375 160.966127 
L 363.023438 164.339003 
L 370.216406 168.31037 
L 377.409375 172.531389 
L 385.25625 177.391792 
L 393.757031 182.922026 
L 402.911719 189.139973 
L 413.374219 196.515348 
L 426.452344 206.026765 
L 448.03125 222.056539 
L 466.994531 236.031908 
L 478.764844 244.444188 
L 489.227344 251.647068 
L 498.382031 257.675049 
L 506.882812 262.996264 
L 514.729687 267.635845 
L 521.922656 271.630931 
L 528.461719 275.02732 
L 535.000781 278.180211 
L 541.539844 281.071014 
L 547.425 283.433291 
L 553.310156 285.554671 
L 559.195312 287.421604 
L 564.426563 288.856535 
L 569.657812 290.070198 
L 574.889063 291.053077 
L 580.120312 291.795653 
L 585.351562 292.288411 
L 589.928906 292.507163 
L 594.50625 292.520985 
L 599.083594 292.323503 
L 603.660938 291.908339 
L 608.238281 291.26912 
L 612.815625 290.399468 
L 617.392969 289.29301 
L 621.970312 287.943368 
L 626.547656 286.344168 
L 631.125 284.489033 
L 635.702344 282.371589 
L 640.279688 279.985459 
L 644.857031 277.324269 
L 649.434375 274.381642 
L 654.011719 271.151203 
L 658.589062 267.626576 
L 663.166406 263.801386 
L 667.74375 259.669258 
L 672.321094 255.223814 
L 676.898438 250.458681 
L 681.475781 245.367483 
L 686.053125 239.943843 
L 690.630469 234.181386 
L 695.207813 228.073737 
L 699.785156 221.61452 
L 704.3625 214.79736 
L 708.939844 207.61588 
L 713.517188 200.063706 
L 718.748438 190.970559 
L 723.979687 181.375396 
L 729.210938 171.268699 
L 734.442188 160.640951 
L 739.673438 149.482635 
L 744.904688 137.784236 
L 750.135937 125.536234 
L 755.367188 112.729115 
L 760.598438 99.35336 
L 765.829688 85.399453 
L 771.060938 70.857878 
L 776.292187 55.719116 
L 777.6 51.84 
L 777.6 51.84 
" clip-path="url(#pb0e29f0fa5)" style="fill: none; stroke: #2ca02c; stroke-width: 1.5; stroke-linecap: square"/>
   </g>
   <g id="line2d_48">
    <path d="M 108 51.84 
L 111.923437 70.821382 
L 115.846875 88.802851 
L 119.770312 105.812018 
L 123.69375 121.876162 
L 127.617188 137.022237 
L 131.540625 151.276864 
L 135.464063 164.666338 
L 139.3875 177.216622 
L 143.310938 188.953349 
L 147.234375 199.901827 
L 151.157812 210.087029 
L 154.427344 218.009432 
L 157.696875 225.432992 
L 160.966406 232.37164 
L 164.235937 238.839145 
L 167.505469 244.84912 
L 170.775 250.415018 
L 174.044531 255.550132 
L 177.314062 260.267598 
L 180.583594 264.580392 
L 183.853125 268.501332 
L 187.122656 272.043077 
L 190.392188 275.218127 
L 193.661719 278.038823 
L 196.93125 280.517347 
L 200.200781 282.665722 
L 203.470313 284.495814 
L 206.739844 286.019328 
L 210.009375 287.247811 
L 213.278906 288.192651 
L 216.548438 288.865078 
L 219.817969 289.276161 
L 223.0875 289.436814 
L 226.357031 289.357787 
L 229.626563 289.049677 
L 232.896094 288.522917 
L 236.165625 287.787784 
L 239.435156 286.854395 
L 243.358594 285.486642 
L 247.282031 283.86464 
L 251.205469 282.004967 
L 255.128906 279.923869 
L 259.70625 277.237285 
L 264.283594 274.295685 
L 269.514844 270.652478 
L 274.746094 266.742648 
L 280.63125 262.067633 
L 287.170313 256.584616 
L 295.017187 249.688026 
L 304.171875 241.333178 
L 320.519531 226.040986 
L 334.251562 213.311619 
L 343.40625 205.10746 
L 351.253125 198.355088 
L 358.446094 192.450458 
L 364.985156 187.358835 
L 371.524219 182.562911 
L 377.409375 178.523397 
L 383.294531 174.766256 
L 388.525781 171.677971 
L 393.757031 168.838117 
L 398.988281 166.256974 
L 404.219531 163.943781 
L 408.796875 162.146008 
L 413.374219 160.564514 
L 417.951563 159.203524 
L 422.528906 158.066658 
L 427.10625 157.156921 
L 431.683594 156.476712 
L 436.260938 156.027817 
L 440.838281 155.811412 
L 445.415625 155.828065 
L 449.992969 156.077731 
L 454.570312 156.559758 
L 459.147656 157.27288 
L 463.725 158.215225 
L 468.302344 159.384307 
L 472.879687 160.777033 
L 477.457031 162.389698 
L 482.034375 164.217986 
L 487.265625 166.565143 
L 492.496875 169.179151 
L 497.728125 172.050642 
L 502.959375 175.169208 
L 508.844531 178.958627 
L 514.729687 183.028351 
L 520.614844 187.358835 
L 527.153906 192.450458 
L 534.346875 198.355088 
L 542.19375 205.10746 
L 551.348438 213.311619 
L 563.11875 224.204025 
L 588.621094 247.920987 
L 597.121875 255.456788 
L 604.314844 261.532057 
L 610.2 266.236875 
L 616.085156 270.652478 
L 621.316406 274.295685 
L 625.89375 277.237285 
L 630.471094 279.923869 
L 635.048437 282.330724 
L 638.971875 284.151923 
L 642.895313 285.73271 
L 646.81875 287.056453 
L 650.088281 287.950992 
L 653.357813 288.645265 
L 656.627344 289.129122 
L 659.896875 289.392256 
L 663.166406 289.424199 
L 666.435938 289.214326 
L 669.705469 288.751852 
L 672.975 288.025833 
L 676.244531 287.025168 
L 679.514063 285.738595 
L 682.783594 284.154694 
L 686.053125 282.261887 
L 689.322656 280.048436 
L 692.592188 277.502445 
L 695.861719 274.611858 
L 699.13125 271.364462 
L 702.400781 267.747883 
L 705.670313 263.749589 
L 708.939844 259.356891 
L 712.209375 254.556939 
L 715.478906 249.336724 
L 718.748438 243.68308 
L 722.017969 237.58268 
L 725.2875 231.02204 
L 728.557031 223.987517 
L 731.826563 216.465307 
L 735.096094 208.44145 
L 738.365625 199.901827 
L 741.635156 190.832157 
L 745.558594 179.228552 
L 749.482031 166.815633 
L 753.405469 153.567818 
L 757.328906 139.4592 
L 761.252344 124.46354 
L 765.175781 108.55427 
L 769.099219 91.704493 
L 773.022656 73.886983 
L 776.946094 55.074184 
L 777.6 51.84 
L 777.6 51.84 
" clip-path="url(#pb0e29f0fa5)" style="fill: none; stroke: #d62728; stroke-width: 1.5; stroke-linecap: square"/>
   </g>
   <g id="line2d_49">
    <path d="M 108 384.48 
L 111.269531 360.938665 
L 114.539062 338.998561 
L 117.808594 318.59676 
L 121.078125 299.671732 
L 124.347656 282.163336 
L 127.617188 266.012804 
L 130.886719 251.16273 
L 134.15625 237.557051 
L 136.771875 227.531648 
L 139.3875 218.240192 
L 142.003125 209.655803 
L 144.61875 201.752132 
L 147.234375 194.503359 
L 149.85 187.884182 
L 152.465625 181.869817 
L 155.08125 176.435993 
L 157.696875 171.558946 
L 160.3125 167.215416 
L 162.928125 163.382641 
L 165.54375 160.038353 
L 167.505469 157.837586 
L 169.467188 155.890325 
L 171.428906 154.187712 
L 173.390625 152.721043 
L 175.352344 151.481763 
L 177.314062 150.461466 
L 179.275781 149.651894 
L 181.2375 149.044936 
L 183.199219 148.632628 
L 185.160937 148.407149 
L 187.122656 148.360822 
L 189.084375 148.486113 
L 191.7 148.907373 
L 194.315625 149.60347 
L 196.93125 150.557708 
L 199.546875 151.753825 
L 202.1625 153.175989 
L 205.432031 155.248142 
L 208.701562 157.620286 
L 211.971094 160.264265 
L 215.894531 163.7577 
L 219.817969 167.558476 
L 224.395313 172.323848 
L 229.626563 178.127419 
L 235.511719 185.003547 
L 243.358594 194.543157 
L 266.245313 222.607828 
L 272.784375 230.177243 
L 278.669531 236.665527 
L 283.900781 242.125258 
L 289.132031 247.257307 
L 293.709375 251.45376 
L 298.286719 255.355991 
L 302.864063 258.947693 
L 306.7875 261.768511 
L 310.710938 264.343477 
L 314.634375 266.666365 
L 318.557813 268.732117 
L 322.48125 270.536811 
L 326.404688 272.077623 
L 330.328125 273.352796 
L 334.251562 274.361603 
L 338.175 275.104312 
L 342.098437 275.582155 
L 346.021875 275.797286 
L 349.945312 275.752754 
L 353.86875 275.452462 
L 357.792188 274.901138 
L 361.715625 274.104296 
L 365.639063 273.068202 
L 369.5625 271.79984 
L 373.485937 270.306878 
L 377.409375 268.597632 
L 381.986719 266.342099 
L 386.564063 263.819528 
L 391.141406 261.046089 
L 396.372656 257.59122 
L 401.603906 253.857895 
L 407.489062 249.360167 
L 413.374219 244.587508 
L 420.567187 238.444314 
L 429.067969 230.850459 
L 440.838281 219.986953 
L 458.49375 203.691626 
L 466.994531 196.170605 
L 474.1875 190.113707 
L 480.072656 185.427942 
L 485.957812 181.031237 
L 491.189063 177.3991 
L 496.420313 174.055652 
L 500.997656 171.387687 
L 505.575 168.977637 
L 510.152344 166.841254 
L 514.075781 165.239071 
L 517.999219 163.85741 
L 521.922656 162.704265 
L 525.846094 161.786967 
L 529.769531 161.112147 
L 533.692969 160.685699 
L 537.616406 160.512747 
L 541.539844 160.597611 
L 545.463281 160.943771 
L 549.386719 161.553835 
L 553.310156 162.429499 
L 557.233594 163.571517 
L 561.157031 164.979664 
L 565.080469 166.652702 
L 569.003906 168.588345 
L 572.927344 170.783226 
L 576.850781 173.232858 
L 580.774219 175.931603 
L 584.697656 178.872637 
L 589.275 182.599265 
L 593.852344 186.629729 
L 598.429688 190.946682 
L 603.660938 196.205601 
L 608.892187 201.779053 
L 614.777344 208.377427 
L 621.316406 216.044057 
L 629.817188 226.38393 
L 652.05 253.642201 
L 657.935156 260.408142 
L 663.166406 266.078264 
L 667.74375 270.697593 
L 671.667187 274.350204 
L 675.590625 277.6732 
L 678.860156 280.1574 
L 682.129688 282.352992 
L 684.745312 283.882376 
L 687.360937 285.193469 
L 689.976562 286.270652 
L 692.592188 287.097879 
L 695.207813 287.658672 
L 697.823437 287.936115 
L 699.785156 287.947824 
L 701.746875 287.782908 
L 703.708594 287.433738 
L 705.670313 286.892542 
L 707.632031 286.151402 
L 709.59375 285.202257 
L 711.555469 284.036897 
L 713.517188 282.646968 
L 715.478906 281.023963 
L 717.440625 279.159227 
L 719.402344 277.043956 
L 721.364063 274.669191 
L 723.325781 272.025822 
L 725.941406 268.067465 
L 728.557031 263.592709 
L 731.172656 258.578668 
L 733.788281 253.001957 
L 736.403906 246.838684 
L 739.019531 240.064452 
L 741.635156 232.654346 
L 744.250781 224.582938 
L 746.866406 215.824273 
L 749.482031 206.35187 
L 752.097656 196.138719 
L 754.713281 185.15727 
L 757.328906 173.379434 
L 760.598438 157.493543 
L 763.867969 140.261378 
L 767.1375 121.624443 
L 770.407031 101.522874 
L 773.676563 79.89542 
L 776.946094 56.679434 
L 777.6 51.84 
L 777.6 51.84 
" clip-path="url(#pb0e29f0fa5)" style="fill: none; stroke: #9467bd; stroke-width: 1.5; stroke-linecap: square"/>
   </g>
   <g id="patch_3">
    <path d="M 108 384.48 
L 108 51.84 
" style="fill: none; stroke: #000000; stroke-width: 0.8; stroke-linejoin: miter; stroke-linecap: square"/>
   </g>
   <g id="patch_4">
    <path d="M 777.6 384.48 
L 777.6 51.84 
" style="fill: none; stroke: #000000; stroke-width: 0.8; stroke-linejoin: miter; stroke-linecap: square"/>
   </g>
   <g id="patch_5">
    <path d="M 108 384.48 
L 777.6 384.48 
" style="fill: none; stroke: #000000; stroke-width: 0.8; stroke-linejoin: miter; stroke-linecap: square"/>
   </g>
   <g id="patch_6">
    <path d="M 108 51.84 
L 777.6 51.84 
" style="fill: none; stroke: #000000; stroke-width: 0.8; stroke-linejoin: miter; stroke-linecap: square"/>
   </g>
   <g id="legend_1">
    <g id="patch_7">
     <path d="M 714.1 379.48 
L 770.6 379.48 
Q 772.6 379.48 772.6 377.48 
L 772.6 305.089375 
Q 772.6 303.089375 770.6 303.089375 
L 714.1 303.089375 
Q 712.1 303.089375 712.1 305.089375 
L 712.1 377.48 
Q 712.1 379.48 714.1 379.48 
z
" style="fill: #ffffff; opacity: 0.8; stroke: #cccccc; stroke-linejoin: miter"/>
    </g>
    <g id="line2d_50">
     <path d="M 716.1 311.187813 
L 726.1 311.187813 
L 736.1 311.187813 
" style="fill: none; stroke: #1f77b4; stroke-width: 1.5; stroke-linecap: square"/>
    </g>
    <g id="text_23">
     <!-- $P_{1}(x)$ -->
     <g transform="translate(744.1 314.687813)scale(0.1 -0.1)">
      <defs>
       <path id="DejaVuSans-Oblique-50" d="M 1081 4666 
L 2541 4666 
Q 3178 4666 3512 4369 
Q 3847 4072 3847 3500 
Q 3847 2731 3353 2303 
Q 2859 1875 1966 1875 
L 1172 1875 
L 806 0 
L 172 0 
L 1081 4666 
z
M 1613 4147 
L 1275 2394 
L 2069 2394 
Q 2606 2394 2893 2669 
Q 3181 2944 3181 3456 
Q 3181 3784 2986 3965 
Q 2791 4147 2438 4147 
L 1613 4147 
z
" transform="scale(0.015625)"/>
       <path id="DejaVuSans-28" d="M 1984 4856 
Q 1566 4138 1362 3434 
Q 1159 2731 1159 2009 
Q 1159 1288 1364 580 
Q 1569 -128 1984 -844 
L 1484 -844 
Q 1016 -109 783 600 
Q 550 1309 550 2009 
Q 550 2706 781 3412 
Q 1013 4119 1484 4856 
L 1984 4856 
z
" transform="scale(0.015625)"/>
       <path id="DejaVuSans-Oblique-78" d="M 3841 3500 
L 2234 1784 
L 3219 0 
L 2559 0 
L 1819 1388 
L 531 0 
L -166 0 
L 1556 1844 
L 641 3500 
L 1300 3500 
L 1972 2234 
L 3144 3500 
L 3841 3500 
z
" transform="scale(0.015625)"/>
       <path id="DejaVuSans-29" d="M 513 4856 
L 1013 4856 
Q 1481 4119 1714 3412 
Q 1947 2706 1947 2009 
Q 1947 1309 1714 600 
Q 1481 -109 1013 -844 
L 513 -844 
Q 928 -128 1133 580 
Q 1338 1288 1338 2009 
Q 1338 2731 1133 3434 
Q 928 4138 513 4856 
z
" transform="scale(0.015625)"/>
      </defs>
      <use xlink:href="#DejaVuSans-Oblique-50" transform="translate(0 0.125)"/>
      <use xlink:href="#DejaVuSans-31" transform="translate(60.302734 -16.28125)scale(0.7)"/>
      <use xlink:href="#DejaVuSans-28" transform="translate(107.573242 0.125)"/>
      <use xlink:href="#DejaVuSans-Oblique-78" transform="translate(146.586914 0.125)"/>
      <use xlink:href="#DejaVuSans-29" transform="translate(205.766602 0.125)"/>
     </g>
    </g>
    <g id="line2d_51">
     <path d="M 716.1 325.865937 
L 726.1 325.865937 
L 736.1 325.865937 
" style="fill: none; stroke: #ff7f0e; stroke-width: 1.5; stroke-linecap: square"/>
    </g>
    <g id="text_24">
     <!-- $P_{2}(x)$ -->
     <g transform="translate(744.1 329.365937)scale(0.1 -0.1)">
      <use xlink:href="#DejaVuSans-Oblique-50" transform="translate(0 0.125)"/>
      <use xlink:href="#DejaVuSans-32" transform="translate(60.302734 -16.28125)scale(0.7)"/>
      <use xlink:href="#DejaVuSans-28" transform="translate(107.573242 0.125)"/>
      <use xlink:href="#DejaVuSans-Oblique-78" transform="translate(146.586914 0.125)"/>
      <use xlink:href="#DejaVuSans-29" transform="translate(205.766602 0.125)"/>
     </g>
    </g>
    <g id="line2d_52">
     <path d="M 716.1 340.544062 
L 726.1 340.544062 
L 736.1 340.544062 
" style="fill: none; stroke: #2ca02c; stroke-width: 1.5; stroke-linecap: square"/>
    </g>
    <g id="text_25">
     <!-- $P_{3}(x)$ -->
     <g transform="translate(744.1 344.044062)scale(0.1 -0.1)">
      <defs>
       <path id="DejaVuSans-33" d="M 2597 2516 
Q 3050 2419 3304 2112 
Q 3559 1806 3559 1356 
Q 3559 666 3084 287 
Q 2609 -91 1734 -91 
Q 1441 -91 1130 -33 
Q 819 25 488 141 
L 488 750 
Q 750 597 1062 519 
Q 1375 441 1716 441 
Q 2309 441 2620 675 
Q 2931 909 2931 1356 
Q 2931 1769 2642 2001 
Q 2353 2234 1838 2234 
L 1294 2234 
L 1294 2753 
L 1863 2753 
Q 2328 2753 2575 2939 
Q 2822 3125 2822 3475 
Q 2822 3834 2567 4026 
Q 2313 4219 1838 4219 
Q 1578 4219 1281 4162 
Q 984 4106 628 3988 
L 628 4550 
Q 988 4650 1302 4700 
Q 1616 4750 1894 4750 
Q 2613 4750 3031 4423 
Q 3450 4097 3450 3541 
Q 3450 3153 3228 2886 
Q 3006 2619 2597 2516 
z
" transform="scale(0.015625)"/>
      </defs>
      <use xlink:href="#DejaVuSans-Oblique-50" transform="translate(0 0.125)"/>
      <use xlink:href="#DejaVuSans-33" transform="translate(60.302734 -16.28125)scale(0.7)"/>
      <use xlink:href="#DejaVuSans-28" transform="translate(107.573242 0.125)"/>
      <use xlink:href="#DejaVuSans-Oblique-78" transform="translate(146.586914 0.125)"/>
      <use xlink:href="#DejaVuSans-29" transform="translate(205.766602 0.125)"/>
     </g>
    </g>
    <g id="line2d_53">
     <path d="M 716.1 355.222188 
L 726.1 355.222188 
L 736.1 355.222188 
" style="fill: none; stroke: #d62728; stroke-width: 1.5; stroke-linecap: square"/>
    </g>
    <g id="text_26">
     <!-- $P_{4}(x)$ -->
     <g transform="translate(744.1 358.722188)scale(0.1 -0.1)">
      <use xlink:href="#DejaVuSans-Oblique-50" transform="translate(0 0.125)"/>
      <use xlink:href="#DejaVuSans-34" transform="translate(60.302734 -16.28125)scale(0.7)"/>
      <use xlink:href="#DejaVuSans-28" transform="translate(107.573242 0.125)"/>
      <use xlink:href="#DejaVuSans-Oblique-78" transform="translate(146.586914 0.125)"/>
      <use xlink:href="#DejaVuSans-29" transform="translate(205.766602 0.125)"/>
     </g>
    </g>
    <g id="line2d_54">
     <path d="M 716.1 369.900313 
L 726.1 369.900313 
L 736.1 369.900313 
" style="fill: none; stroke: #9467bd; stroke-width: 1.5; stroke-linecap: square"/>
    </g>
    <g id="text_27">
     <!-- $P_{5}(x)$ -->
     <g transform="translate(744.1 373.400313)scale(0.1 -0.1)">
      <defs>
       <path id="DejaVuSans-35" d="M 691 4666 
L 3169 4666 
L 3169 4134 
L 1269 4134 
L 1269 2991 
Q 1406 3038 1543 3061 
Q 1681 3084 1819 3084 
Q 2600 3084 3056 2656 
Q 3513 2228 3513 1497 
Q 3513 744 3044 326 
Q 2575 -91 1722 -91 
Q 1428 -91 1123 -41 
Q 819 9 494 109 
L 494 744 
Q 775 591 1075 516 
Q 1375 441 1709 441 
Q 2250 441 2565 725 
Q 2881 1009 2881 1497 
Q 2881 1984 2565 2268 
Q 2250 2553 1709 2553 
Q 1456 2553 1204 2497 
Q 953 2441 691 2322 
L 691 4666 
z
" transform="scale(0.015625)"/>
      </defs>
      <use xlink:href="#DejaVuSans-Oblique-50" transform="translate(0 0.125)"/>
      <use xlink:href="#DejaVuSans-35" transform="translate(60.302734 -16.28125)scale(0.7)"/>
      <use xlink:href="#DejaVuSans-28" transform="translate(107.573242 0.125)"/>
      <use xlink:href="#DejaVuSans-Oblique-78" transform="translate(146.586914 0.125)"/>
      <use xlink:href="#DejaVuSans-29" transform="translate(205.766602 0.125)"/>
     </g>
    </g>
   </g>
  </g>
 </g>
 <defs>
  <clipPath id="pb0e29f0fa5">
   <rect x="108" y="51.84" width="669.6" height="332.64"/>
  </clipPath>
 </defs>
</svg>
